<svg width="60" height="60" viewBox="0 0 60 60" fill="none" xmlns="http://www.w3.org/2000/svg">
<path d="M22.5 32.5L37.5 32.5" stroke="white" stroke-width="3" stroke-linecap="round"/>
<path d="M22.5 22.5L32.5 22.5" stroke="white" stroke-width="3" stroke-linecap="round"/>
<path d="M22.5 42.5L32.5 42.5" stroke="white" stroke-width="3" stroke-linecap="round"/>
<path d="M47.5 32.5V46.5C47.5 49.3284 47.5 50.7426 46.6213 51.6213C45.7426 52.5 44.3284 52.5 41.5 52.5H18.5C15.6716 52.5 14.2574 52.5 13.3787 51.6213C12.5 50.7426 12.5 49.3284 12.5 46.5V13.5C12.5 10.6716 12.5 9.25736 13.3787 8.37868C14.2574 7.5 15.6716 7.5 18.5 7.5H27.5" stroke="white" stroke-width="3"/>
<path d="M45 7.5L45 22.5" stroke="white" stroke-width="3" stroke-linecap="round"/>
<path d="M52.5 15L37.5 15" stroke="white" stroke-width="3" stroke-linecap="round"/>
</svg>
