<svg width="35" height="26" viewBox="0 0 35 26" fill="none" xmlns="http://www.w3.org/2000/svg">
<g id="Back Arrow">
<path id="Vector 10" d="M5 10.3077L3.66256 11.7947L2.00922 10.3077L3.66256 8.82067L5 10.3077ZM33 22C33 23.1046 32.1046 24 31 24C29.8954 24 29 23.1046 29 22L33 22ZM11.7876 19.1024L3.66256 11.7947L6.33744 8.82067L14.4624 16.1284L11.7876 19.1024ZM3.66256 8.82067L11.7876 1.51298L14.4624 4.48703L6.33744 11.7947L3.66256 8.82067ZM5 8.30769L25 8.30769L25 12.3077L5 12.3077L5 8.30769ZM33 16.3077L33 22L29 22L29 16.3077L33 16.3077ZM25 8.30769C29.4183 8.30769 33 11.8894 33 16.3077L29 16.3077C29 14.0986 27.2091 12.3077 25 12.3077L25 8.30769Z" fill="white"/>
</g>
</svg>
