<svg
  xmlns:dc="http://purl.org/dc/elements/1.1/"
  xmlns:cc="http://creativecommons.org/ns#"
  xmlns:rdf="http://www.w3.org/1999/02/22-rdf-syntax-ns#"
  xmlns:svg="http://www.w3.org/2000/svg"
  xmlns="http://www.w3.org/2000/svg"
  xmlns:sodipodi="http://sodipodi.sourceforge.net/DTD/sodipodi-0.dtd"
  xmlns:inkscape="http://www.inkscape.org/namespaces/inkscape"
  version="1.1"
  viewBox="0 0 100 125"
>
  <g transform="translate(0,-952.36218)">
    <path
      style="
        text-indent: 0;
        text-transform: none;
        direction: ltr;
        block-progression: tb;
        baseline-shift: baseline;
        color: #fff;
        enable-background: accumulate;
      "
      d="m 22,955.36215 c -3.8261,0 -7,3.1739 -7,7 l 0,80.00005 c 0,3.8261 3.1739,7 7,7 l 56,0 c 3.8261,0 7,-3.1739 7,-7 l 0,-80.00005 c 0,-3.8261 -3.1739,-7 -7,-7 z m 0,6 56,0 c 0.6059,0 1,0.39415 1,1 l 0,80.00005 c 0,0.6058 -0.3941,1 -1,1 l -56,0 c -0.6059,0 -1,-0.3942 -1,-1 l 0,-80.00005 c 0,-0.60585 0.3941,-1 1,-1 z m 38.75,5.96877 c -0.765639,0.0704 -1.498633,0.44834 -2,1.03125 l -12.1875,13.90625 -5.75,-4.3125 c -1.249623,-0.97356 -3.277714,-0.70818 -4.234763,0.55414 -0.957049,1.26231 -0.665025,3.28674 0.609763,4.22711 l 8,6 c 1.192775,0.90418 3.072389,0.71621 4.0625,-0.40625 l 14,-16 c 0.804108,-0.88927 0.994303,-2.28172 0.458132,-3.35407 C 63.171961,967.90451 61.943884,967.2212 60.75,967.33092 z M 30,997.36221 c -1.6568,0 -3,1.3432 -3,2.99999 0,1.6569 1.3432,3 3,3 l 40,0 c 1.6568,0 3,-1.3431 3,-3 0,-1.65679 -1.3432,-2.99999 -3,-2.99999 z m 0,15.99999 c -1.6568,0 -3,1.3432 -3,3 0,1.6569 1.3432,3 3,3 l 40,0 c 1.6568,0 3,-1.3431 3,-3 0,-1.6568 -1.3432,-3 -3,-3 z m 0,16 c -1.6568,0 -3,1.3432 -3,3 0,1.6569 1.3432,3 3,3 l 40,0 c 1.6568,0 3,-1.3431 3,-3 0,-1.6568 -1.3432,-3 -3,-3 z"
      fill="#fff"
      fill-opacity="1"
      stroke="none"
      marker="none"
      visibility="visible"
      display="inline"
      overflow="visible"
    />
  </g>
</svg>
