<svg
  width="24"
  height="25"
  viewBox="0 0 24 25"
  fill="none"
  xmlns="http://www.w3.org/2000/svg"
>
  <g id="Date_range">
    <rect
      id="Rectangle 25"
      x="3"
      y="6.5"
      width="18"
      height="15"
      rx="2"
      stroke="var(--stak-dark-gray)"
      stroke-width="2"
    />
    <path
      id="Rectangle 26"
      d="M3 10.5C3 8.61438 3 7.67157 3.58579 7.08579C4.17157 6.5 5.11438 6.5 7 6.5H17C18.8856 6.5 19.8284 6.5 20.4142 7.08579C21 7.67157 21 8.61438 21 10.5H3Z"
      fill="var(--stak-dark-gray)"
    />
    <path
      id="Line 1"
      d="M7 3.5L7 6.5"
      stroke="var(--stak-dark-gray)"
      stroke-width="2"
      stroke-linecap="round"
    />
    <path
      id="Line 2"
      d="M17 3.5L17 6.5"
      stroke="var(--stak-dark-gray)"
      stroke-width="2"
      stroke-linecap="round"
    />
    <rect
      id="Rectangle 27"
      x="7"
      y="12.5"
      width="4"
      height="2"
      rx="0.5"
      fill="var(--stak-dark-gray)"
    />
    <rect
      id="Rectangle 29"
      x="7"
      y="16.5"
      width="4"
      height="2"
      rx="0.5"
      fill="var(--stak-dark-gray)"
    />
    <rect
      id="Rectangle 28"
      x="13"
      y="12.5"
      width="4"
      height="2"
      rx="0.5"
      fill="var(--stak-dark-gray)"
    />
    <rect
      id="Rectangle 30"
      x="13"
      y="16.5"
      width="4"
      height="2"
      rx="0.5"
      fill="var(--stak-dark-gray)"
    />
  </g>
</svg>
