<?xml version="1.0" encoding="UTF-8"?>
<svg width="100pt" height="100pt" version="1.1" viewBox="0 0 100 100" xmlns="http://www.w3.org/2000/svg">
 <path d="m69.102 50.398c-3.8008-4-8.8008-6.1016-14.199-6.1016h-1.5l-0.003906-18.195h1.6016c3.3984 0 6.5 2.1992 7.8984 5.6016 1.1992 2.8984 4.5 4.3984 7.3984 3.1992 2.8984-1.1992 4.3984-4.5 3.1992-7.3984-3.0977-7.8047-10.395-12.805-18.496-12.805h-1.5v-8.8008c0-1.8984-1.5-3.3984-3.3984-3.3984-1.8984 0-3.3984 1.5-3.3984 3.3984v8.6992l-1.7031 0.003906c-5.3984 0-10.398 2.1992-14.102 6-3.6992 3.8008-5.8008 9-5.8008 14.5 0 11.301 8.8984 20.5 19.898 20.5h1.5v18.199h-1.4961c-3.3984 0-6.5-2.1992-7.8984-5.6016-1.1992-2.8984-4.5-4.3984-7.3984-3.1992s-4.3984 4.5-3.1992 7.3984c3.1016 7.8008 10.398 12.801 18.5 12.801h1.5v8.6992c0 1.8984 1.5 3.3984 3.3984 3.3984 1.8984 0 3.3984-1.5 3.3984-3.3984v-8.6992h1.6992c11 0 19.898-9.1992 19.898-20.5 0-5.3984-2.0977-10.5-5.7969-14.301zm-24.102-6.0977c-4.6992 0-8.5-4.1016-8.5-9.1016 0-2.5 0.89844-4.8008 2.6016-6.5 1.6016-1.6016 3.6992-2.5 5.8984-2.5h1.5v18.199h-1.5zm10 29.598h-1.5v-18.199h1.5c2.1992 0 4.3008 0.89844 5.8984 2.6016 1.6016 1.6992 2.6016 4 2.6016 6.5 0 5-3.8984 9.0977-8.5 9.0977z"/>
</svg>
